<svg id="Layer_1" data-name="Layer 1" xmlns="http://www.w3.org/2000/svg" viewBox="0 0 340 105"><title>Artboard 2</title><path d="M63.11,21.83l-8,7.5a17.27,17.27,0,0,0-6.22-6.5,15.22,15.22,0,0,0-7.76-2.16,15.41,15.41,0,0,0-11.41,5,16.37,16.37,0,0,0-4.83,11.77,16.94,16.94,0,0,0,4.83,12.21,15.64,15.64,0,0,0,11.66,5,14.66,14.66,0,0,0,7.14-1.88q3.43-1.87,5.52-7H40.78V34.83H66.61v7.24q0,5.59-3.84,12a23.17,23.17,0,0,1-10.1,9.38,29.3,29.3,0,0,1-12.66,3A25.93,25.93,0,0,1,20.44,58q-8-8.4-8-20.76a27.49,27.49,0,0,1,8.21-20A26.75,26.75,0,0,1,40.44,8.91Q55.19,8.91,63.11,21.83Z"/><path d="M82.28,9.91H94.34V65.65H82.28Z"/><path d="M112.92,9.68h31.5V20.5H124.89V31.93h19.53V42.84H125V65.65H112.92Z"/><path d="M158.09,9.68h37.64V21.57H182.9V65.65H170.83V21.57H158.09Z"/><rect x="71.53" y="21.03" width="16" height="134.12" transform="translate(167.62 8.56) rotate(90)"/><path d="M154.52,81.14h3.29l2.4,7.69,2.4-7.69h3.17L167.43,94H164.8l-1.13-9-2.83,9h-1.25l-2.9-9.11L155.62,94H153Z"/><path d="M178.89,81.14H181L186.26,94h-2.78l-1-2.52h-4.92l-1,2.52h-2.77Zm1.08,4.2-1.51,3.78h3Z"/><path d="M193.17,81.14h4.23a4.33,4.33,0,0,1,3,1,3.51,3.51,0,0,1,1.12,2.74,4.73,4.73,0,0,1-.51,2,3.58,3.58,0,0,1-1.89,1.67L202.74,94h-3.17l-3.32-5h-.31v5h-2.77ZM196,83.43v3.34h.59c1.45,0,2.17-.59,2.17-1.77a1.39,1.39,0,0,0-.56-1.15,2.59,2.59,0,0,0-1.57-.42Z"/><path d="M209.92,81.14h2.76v5.42h0L217,81.14h3.39l-4.87,6.13,5.08,6.7h-3.33l-4.52-6h0v6h-2.76Z"/><path d="M227.58,81.14h7.21v2.54h-4.45v2.59h4.45v2.5h-4.45v2.66h4.45V94h-7.21Z"/><path d="M241.26,81.14h8.62v2.73h-2.94V94h-2.76V83.87h-2.92Z"/><path d="M256.78,81.14h4.38a4,4,0,0,1,2.85,1,3.55,3.55,0,0,1,1.09,2.71,4.32,4.32,0,0,1-.54,2.1,3.34,3.34,0,0,1-1.6,1.48,5.2,5.2,0,0,1-1.84.51l-1.6,0v5h-2.74Zm2.7,2.31v3.28h1.08a1.71,1.71,0,0,0,1.68-1.68,1.45,1.45,0,0,0-.56-1.21,2.52,2.52,0,0,0-1.58-.43Z"/><path d="M272.39,81.14h2.75V91.2h3.78V94h-6.53Z"/><path d="M290.32,81.14h2.14L297.68,94H294.9l-1-2.52H289L288,94h-2.77Zm1.07,4.2-1.51,3.78h3.05Z"/><path d="M313.21,81.83V85a7.35,7.35,0,0,0-3.64-1.25,3.14,3.14,0,0,0-2.5,1.08,4.21,4.21,0,0,0-.94,2.89,3.82,3.82,0,0,0,1,2.75,3.52,3.52,0,0,0,2.64,1,7.18,7.18,0,0,0,3.45-1.17v3.11a12.39,12.39,0,0,1-3.76.75,5.82,5.82,0,0,1-4.39-1.9,6.44,6.44,0,0,1-1.81-4.63,6.58,6.58,0,0,1,1.84-4.71A6,6,0,0,1,309.57,81,8.91,8.91,0,0,1,313.21,81.83Z"/><path d="M320.31,81.14h7.22v2.54h-4.45v2.59h4.45v2.5h-4.45v2.66h4.45V94h-7.22Z"/></svg>