<svg id="Layer_1" data-name="Layer 1" xmlns="http://www.w3.org/2000/svg" xmlns:xlink="http://www.w3.org/1999/xlink" viewBox="0 0 377 130"><title>Artboard 2</title><path d="M89.33,29.22l-11,10.31a23.82,23.82,0,0,0-8.56-8.94,21.07,21.07,0,0,0-26.33,3.9,22.43,22.43,0,0,0-6.65,16.17,23.24,23.24,0,0,0,6.65,16.79,21.45,21.45,0,0,0,16,6.88,20.22,20.22,0,0,0,9.82-2.58c3.14-1.71,5.67-4.94,7.58-9.66H58.63v-15H94.14v10q0,7.68-5.27,16.49A31.93,31.93,0,0,1,75,86.43a40.26,40.26,0,0,1-17.4,4.07A35.63,35.63,0,0,1,30.68,79q-11-11.53-11-28.53A37.76,37.76,0,0,1,31,22.89,36.79,36.79,0,0,1,58.16,11.46Q78.44,11.46,89.33,29.22Z"/><path d="M115.68,32.52h16.58V89.45H115.68Z"/><path d="M157.79,12.52h43.3V27.4H174.26V43.1h26.83v15H174.37V89.45H157.79Z"/><path d="M219.88,12.52h51.74V28.86H254V89.45H237.4V28.86H219.88Z"/><rect x="78.78" y="45.12" width="16" height="134.12" transform="translate(198.96 25.4) rotate(90)"/><path d="M161.78,105.23h3.28l2.4,7.69,2.41-7.69H173l1.65,12.83h-2.63l-1.13-9-2.82,9h-1.26L164,109l-1.07,9.1H160.2Z"/><path d="M186.15,105.23h2.14l5.22,12.83h-2.78l-1-2.52h-4.92l-1,2.52H181Zm1.07,4.2-1.51,3.78h3Z"/><path d="M200.43,105.23h4.22a4.38,4.38,0,0,1,3,1,3.54,3.54,0,0,1,1.12,2.74,4.75,4.75,0,0,1-.52,2.05,3.54,3.54,0,0,1-1.89,1.67l3.59,5.35h-3.18l-3.32-5h-.31v5h-2.76Zm2.78,2.29v3.34h.6q2.16,0,2.16-1.77a1.36,1.36,0,0,0-.56-1.15,2.58,2.58,0,0,0-1.56-.42Z"/><path d="M217.17,105.23h2.77v5.42h0l4.24-5.42h3.39l-4.87,6.13,5.08,6.7H224.5l-4.52-6h0v6h-2.77Z"/><path d="M234.83,105.23h7.22v2.54h-4.46v2.59h4.46v2.5h-4.46v2.66h4.46v2.54h-7.22Z"/><path d="M248.51,105.23h8.63V108H254.2v10.1h-2.77V108h-2.92Z"/><path d="M264,105.23h4.38a4,4,0,0,1,2.86,1,3.58,3.58,0,0,1,1.08,2.71,4.42,4.42,0,0,1-.53,2.1,3.37,3.37,0,0,1-1.61,1.48,5.15,5.15,0,0,1-1.83.51l-1.61,0v5H264Zm2.7,2.31v3.28h1.08a1.69,1.69,0,0,0,1.68-1.68,1.45,1.45,0,0,0-.56-1.21,2.52,2.52,0,0,0-1.58-.43Z"/><path d="M279.65,105.23h2.74v10.06h3.78v2.77h-6.52Z"/><path d="M297.57,105.23h2.14l5.23,12.83h-2.78l-1-2.52h-4.92l-1,2.52h-2.76Zm1.07,4.2-1.5,3.78h3Z"/><path d="M320.47,105.92V109a7.41,7.41,0,0,0-3.65-1.25,3.15,3.15,0,0,0-2.5,1.08,4.25,4.25,0,0,0-.93,2.89,3.81,3.81,0,0,0,1,2.75,3.52,3.52,0,0,0,2.64,1,7.32,7.32,0,0,0,3.46-1.16v3.1a12.45,12.45,0,0,1-3.76.75,5.84,5.84,0,0,1-4.4-1.9,6.87,6.87,0,0,1,0-9.34,5.93,5.93,0,0,1,4.47-1.93A9.12,9.12,0,0,1,320.47,105.92Z"/><path d="M327.57,105.23h7.21v2.54h-4.45v2.59h4.45v2.5h-4.45v2.66h4.45v2.54h-7.21Z"/><image width="512" height="512" transform="translate(342.28 103.23) scale(0.03)" xlink:href="giftbox.png"/><circle cx="123.97" cy="18.46" r="8.5"/></svg>